<svg width="64" height="64" viewBox="0 0 64 64" fill="none" xmlns="http://www.w3.org/2000/svg">
  <rect width="64" height="64" rx="16" fill="#0f766e"/>
  <path d="M17 16.5C17 14.567 18.567 13 20.5 13H38L47 22V47.5C47 49.433 45.433 51 43.5 51H20.5C18.567 51 17 49.433 17 47.5V16.5Z" fill="white"/>
  <path d="M38 13V20.5C38 21.881 39.119 23 40.5 23H47" fill="#b7eee4"/>
  <path d="M23 29H45" stroke="#0f766e" stroke-width="3" stroke-linecap="round"/>
  <path d="M23 37H45" stroke="#0f766e" stroke-width="3" stroke-linecap="round"/>
  <path d="M31 25V45" stroke="#0f766e" stroke-width="3" stroke-linecap="round"/>
  <path d="M39 25V45" stroke="#0f766e" stroke-width="3" stroke-linecap="round"/>
  <circle cx="24" cy="37" r="4" fill="#f59e0b" stroke="white" stroke-width="2"/>
  <circle cx="45" cy="29" r="4" fill="#111827" stroke="white" stroke-width="2"/>
  <path d="M27.5 34.5L41.5 30.5" stroke="#111827" stroke-width="2.5" stroke-linecap="round"/>
</svg>
